<?xml version="1.0" encoding="iso-8859-1"?>
<!-- Generator: Adobe Illustrator 16.0.0, SVG Export Plug-In . SVG Version: 6.00 Build 0)  -->
<!DOCTYPE svg PUBLIC "-//W3C//DTD SVG 1.1//EN" "http://www.w3.org/Graphics/SVG/1.1/DTD/svg11.dtd">
<svg version="1.1" id="Capa_1" xmlns="http://www.w3.org/2000/svg" xmlns:xlink="http://www.w3.org/1999/xlink" x="0px" y="0px"
	 width="446.6px" height="446.6px" viewBox="0 0 446.6 446.6" style="enable-background:new 0 0 446.6 446.6;" xml:space="preserve"
	>
<g>
	<g>
		<path d="M129.437,446.6H317.16c16.706,0,30.306-13.604,30.306-30.31V30.303C347.465,13.593,333.866,0,317.16,0H129.437
			C112.73,0,99.134,13.593,99.134,30.303V416.29C99.134,432.996,112.72,446.6,129.437,446.6z M110.984,30.303
			c0-10.166,8.287-18.454,18.453-18.454H317.16c10.182,0,18.453,8.288,18.453,18.454V416.29c0,10.181-8.271,18.463-18.453,18.463
			H129.437c-10.166,0-18.453-8.282-18.453-18.463V30.303z"/>
		<path d="M125.669,394.059h195.248c1.635,0,2.966-1.325,2.966-2.961V52.242c0-1.636-1.331-2.963-2.966-2.963H125.669
			c-1.635,0-2.963,1.328-2.963,2.963v338.86C122.706,392.733,124.034,394.059,125.669,394.059z M136.531,55.205h173.524
			c4.362,0,7.901,3.539,7.901,7.898v317.138c0,4.361-3.539,7.901-7.901,7.901H136.531c-4.359,0-7.898-3.54-7.898-7.901V63.104
			C128.632,58.744,132.171,55.205,136.531,55.205z"/>
		<path d="M206.63,31.234h33.33c1.635,0,2.96-1.325,2.96-2.963c0-1.635-1.325-2.961-2.96-2.961h-33.33
			c-1.638,0-2.963,1.326-2.963,2.961C203.667,29.909,204.992,31.234,206.63,31.234z"/>
		<path d="M240.36,400.837h-34.126c-7.008,0-12.71,5.703-12.71,12.705v2.037c0,7.007,5.71,12.71,12.71,12.71h34.126
			c7.008,0,12.716-5.713,12.716-12.71v-2.037C253.076,406.54,247.363,400.837,240.36,400.837z M247.15,415.579
			c0,3.742-3.042,6.784-6.79,6.784h-34.126c-3.737,0-6.787-3.047-6.787-6.784v-2.037c0-3.737,3.057-6.778,6.787-6.778h34.126
			c3.753,0,6.79,3.046,6.79,6.778V415.579z"/>
		<path d="M228.569,172.328c-3.358,2.791-7.183,2.791-10.542,0c-4.849-4.026-11.027-6.342-17.451-6.342
			c-15.056,0-27.317,12.253-27.317,27.309c0,3.168,1.407,8.549,1.407,8.549c1.539,9.219,26.456,42.607,41.167,61.684
			c1.942,2.509,4.588,3.9,7.457,3.9c2.867,0,5.513-1.392,7.457-3.91c14.396-18.677,38.867-51.516,41.102-61.431
			c0.021-0.063,1.478-5.576,1.478-8.785c0-15.056-12.253-27.309-27.31-27.309C239.593,165.979,233.418,168.302,228.569,172.328z
			 M227.114,260.716c-2.031,2.63-5.608,2.63-7.64,0c-18.336-23.78-31.428-42.353-37.146-52.623
			c-2.125-3.809-3.603-8.879-3.999-10.974c-0.251-1.351-0.473-2.795-0.473-3.831c0-12.53,10.189-22.722,22.719-22.722
			c8.833,0,16.93,5.207,20.637,13.259c0.371,0.805,1.191,1.335,2.084,1.335c0.891,0,1.714-0.522,2.084-1.335
			c3.705-8.052,11.804-13.259,20.634-13.259c12.522,0,22.724,10.191,22.724,22.722c0,2.544-1.32,7.617-1.346,7.695
			C265.913,207.554,250.851,229.882,227.114,260.716z"/>
	</g>
</g>
<g>
</g>
<g>
</g>
<g>
</g>
<g>
</g>
<g>
</g>
<g>
</g>
<g>
</g>
<g>
</g>
<g>
</g>
<g>
</g>
<g>
</g>
<g>
</g>
<g>
</g>
<g>
</g>
<g>
</g>
</svg>
