<?xml version="1.0" encoding="iso-8859-1"?>
<!-- Generator: Adobe Illustrator 16.0.0, SVG Export Plug-In . SVG Version: 6.00 Build 0)  -->
<!DOCTYPE svg PUBLIC "-//W3C//DTD SVG 1.1//EN" "http://www.w3.org/Graphics/SVG/1.1/DTD/svg11.dtd">
<svg version="1.1" id="Capa_1" xmlns="http://www.w3.org/2000/svg" xmlns:xlink="http://www.w3.org/1999/xlink" x="0px" y="0px"
	 width="326.99px" height="326.99px" viewBox="0 0 326.99 326.99" style="enable-background:new 0 0 326.99 326.99;"
	 xml:space="preserve">
<g>
	<g id="Artwork_32_">
		<g id="Layer_5_32_">
			<g>
				<path fill="#ffffff" d="M193.352,113.736c-16.73,0-27.346,18.651-29.856,18.651c-2.196-0.001-12.375-18.651-29.858-18.651
					c-17.001,0-30.886,14.023-31.795,31.003c-0.512,9.592,2.58,16.892,6.936,23.504c8.706,13.21,46.77,45.011,54.773,45.011
					c8.177,0,45.896-31.686,54.657-45.011c4.369-6.642,7.451-13.911,6.938-23.504C224.238,127.759,210.355,113.736,193.352,113.736"
					/>
				<path fill="#ffffff" d="M240.98,0H86.007c-10.86,0-19.696,8.836-19.696,19.696v287.598c0,10.86,8.836,19.696,19.696,19.696h154.976
					c10.861,0,19.697-8.836,19.697-19.696V19.696C260.68,8.836,251.844,0,240.98,0z M142.244,17.202h42.502
					c3.254,0,5.892,2.638,5.892,5.892c0,3.254-2.638,5.892-5.892,5.892h-42.502c-3.254,0-5.892-2.638-5.892-5.892
					C136.352,19.84,138.99,17.202,142.244,17.202z M163.496,312.264c-6.168,0-11.169-5-11.169-11.168s5.001-11.168,11.169-11.168
					c6.168,0,11.168,5,11.168,11.168S169.664,312.264,163.496,312.264z M240.162,267.997c0,6.05-4.951,11-11,11H97.829
					c-6.05,0-11-4.95-11-11V50.828c0-6.05,4.95-11,11-11h131.333c6.049,0,11,4.95,11,11V267.997z"/>
			</g>
		</g>
	</g>
</g>
<g>
</g>
<g>
</g>
<g>
</g>
<g>
</g>
<g>
</g>
<g>
</g>
<g>
</g>
<g>
</g>
<g>
</g>
<g>
</g>
<g>
</g>
<g>
</g>
<g>
</g>
<g>
</g>
<g>
</g>
</svg>
